<?xml version="1.0" standalone="no"?><!DOCTYPE svg PUBLIC "-//W3C//DTD SVG 1.1//EN" "http://www.w3.org/Graphics/SVG/1.1/DTD/svg11.dtd"><svg t="1574403974416" class="icon" viewBox="0 0 1024 1024" version="1.1" xmlns="http://www.w3.org/2000/svg" p-id="1840" width="48" height="48" xmlns:xlink="http://www.w3.org/1999/xlink"><defs><style type="text/css"></style></defs><path d="M685.44 355.556h125.227v56.888H685.44v104.107A298.297 298.297 0 0 1 768 722.574c0 80.583-31.986 156.516-89.813 213.39-57.7 56.747-134.514 88.036-215.965 88.036s-158.265-31.289-215.964-88.036c-57.828-56.888-89.814-132.807-89.814-213.39a298.283 298.283 0 0 1 82.546-206.023V185.543c0-53.461 27.364-103.865 73.742-138.382C353.835 16.54 406.841 0 462.208 0c55.381 0 108.388 16.54 149.504 47.16 37.831 28.16 63.033 66.93 71.012 109.284h127.943v56.89H685.44V256h125.227v56.889H685.44v42.667z m-85.333-170.013c0-25.415-13.853-50.958-39.353-69.945-25.956-19.314-61.028-30.265-98.532-30.265s-72.59 10.951-98.531 30.265c-25.5 18.987-39.367 44.516-39.367 69.945v367.431l-13.654 12.658c-44.103 40.917-68.892 97.337-68.892 156.956 0 57.643 22.755 111.673 64.313 152.548 41.7 40.988 97.024 63.53 156.131 63.53s114.432-22.542 156.132-63.544c41.557-40.875 64.313-94.89 64.313-152.548 0-59.62-24.79-116.039-68.893-156.928l-13.653-12.658v-367.46z m-83.271 412.288c47.416 20.722 80.497 67.57 80.497 122.07 0 73.699-60.487 133.432-135.11 133.432S327.11 793.6 327.11 719.9c0-54.5 33.081-101.347 80.498-122.069V367.93c0-22.557 24.448-40.832 54.613-40.832 30.151 0 54.614 18.275 54.614 40.832v229.888z" p-id="1841"></path></svg>