<?xml version="1.0" standalone="no"?><!DOCTYPE svg PUBLIC "-//W3C//DTD SVG 1.1//EN" "http://www.w3.org/Graphics/SVG/1.1/DTD/svg11.dtd"><svg t="1572853176363" class="icon" viewBox="0 0 1024 1024" version="1.1" xmlns="http://www.w3.org/2000/svg" p-id="2056" width="32" height="32" xmlns:xlink="http://www.w3.org/1999/xlink"><defs><style type="text/css"></style></defs><path d="M920.774194 904.258065V119.741935c0-27.526882-20.645161-41.290323-41.290323-41.290322H156.903226c-20.645161 0-41.290323 20.645161-41.290323 41.290322v784.51613c0 27.526882 20.645161 41.290323 41.290323 41.290322h722.580645c13.763441 6.88172 41.290323-20.645161 41.290323-41.290322z m68.817204-426.666667v426.666667c0 68.817204-55.053763 116.989247-116.989247 116.989247H150.021505C81.204301 1021.247312 33.032258 973.075269 33.032258 904.258065V119.741935C33.032258 50.924731 88.086022 2.752688 150.021505 2.752688H872.602151c68.817204 0 116.989247 48.172043 116.989247 116.989247v357.849463z m-285.002323-110.107527c-13.763441-13.763441-13.763441-34.408602 0-48.172043s34.408602-13.763441 55.053764 0l151.397849 151.397849c6.88172 6.88172 13.763441 27.526882 6.881721 41.290323 0 6.88172-6.88172 6.88172-6.881721 13.763441l-6.88172 6.88172-151.39785 151.39785c-13.763441 13.763441-34.408602 13.763441-55.053763 0-13.763441-13.763441-13.763441-34.408602 0-48.172043l89.462365-89.462366h-426.666666v-68.817204h440.430107l-96.344086-110.107527z m285.002323 113.058409V326.193548h-68.817204v154.348732h68.817204z m0-0.027527h-68.817204V690.924731h68.817204V480.509247z" fill="#ffffff" p-id="2057"></path></svg>