<svg t="1574231225358" class="icon" viewBox="0 0 1052 1024" version="1.1" xmlns="http://www.w3.org/2000/svg" p-id="5389" width="128" height="128"><path d="M512 625.777778v-113.777778h-199.111111a56.888889 56.888889 0 0 1-56.888889-56.888889V56.888889a56.888889 56.888889 0 0 1 56.888889-56.888889h398.222222a56.888889 56.888889 0 0 1 56.888889 56.888889v398.222222a56.888889 56.888889 0 0 1-56.888889 56.888889h-170.666667v113.777778h369.777778v113.777778h85.333334a56.888889 56.888889 0 0 1 56.888888 56.888888v170.666667a56.888889 56.888889 0 0 1-56.888888 56.888889h-170.666667a56.888889 56.888889 0 0 1-56.888889-56.888889v-170.666667a56.888889 56.888889 0 0 1 56.888889-56.888888h60.501333v-88.689778H540.444444V739.555556h56.888889a56.888889 56.888889 0 0 1 56.888889 56.888888v170.666667a56.888889 56.888889 0 0 1-56.888889 56.888889h-170.666666a56.888889 56.888889 0 0 1-56.888889-56.888889v-170.666667a56.888889 56.888889 0 0 1 56.888889-56.888888h85.333333v-88.689778H138.609778V739.555556H227.555556a56.888889 56.888889 0 0 1 56.888888 56.888888v170.666667a56.888889 56.888889 0 0 1-56.888888 56.888889H56.888889a56.888889 56.888889 0 0 1-56.888889-56.888889v-170.666667a56.888889 56.888889 0 0 1 56.888889-56.888888h56.888889v-113.777778h398.222222z" p-id="5390"></path></svg>